<svg id="visual" viewBox="0 0 900 600" width="900" height="600" xmlns="http://www.w3.org/2000/svg" xmlns:xlink="http://www.w3.org/1999/xlink" version="1.1"><rect x="0" y="0" width="900" height="600" fill="#003259"></rect><g fill="#3aaaff"><circle r="14" cx="159" cy="393"></circle><circle r="1" cx="586" cy="493"></circle><circle r="3" cx="680" cy="452"></circle><circle r="0" cx="750" cy="535"></circle><circle r="6" cx="324" cy="250"></circle><circle r="1" cx="355" cy="454"></circle><circle r="2" cx="876" cy="354"></circle><circle r="3" cx="227" cy="419"></circle><circle r="12" cx="788" cy="58"></circle><circle r="3" cx="877" cy="4"></circle><circle r="11" cx="31" cy="460"></circle><circle r="1" cx="77" cy="297"></circle><circle r="0" cx="722" cy="137"></circle><circle r="12" cx="406" cy="60"></circle><circle r="5" cx="407" cy="15"></circle><circle r="5" cx="667" cy="33"></circle><circle r="1" cx="615" cy="286"></circle><circle r="12" cx="615" cy="473"></circle><circle r="8" cx="525" cy="491"></circle><circle r="6" cx="47" cy="531"></circle><circle r="11" cx="62" cy="466"></circle><circle r="5" cx="890" cy="597"></circle><circle r="7" cx="373" cy="250"></circle><circle r="4" cx="353" cy="507"></circle><circle r="3" cx="776" cy="226"></circle><circle r="8" cx="550" cy="292"></circle><circle r="1" cx="248" cy="512"></circle><circle r="6" cx="457" cy="551"></circle><circle r="1" cx="533" cy="209"></circle><circle r="10" cx="324" cy="132"></circle><circle r="4" cx="622" cy="315"></circle><circle r="7" cx="568" cy="182"></circle><circle r="4" cx="195" cy="550"></circle><circle r="6" cx="539" cy="5"></circle><circle r="7" cx="829" cy="249"></circle><circle r="5" cx="750" cy="254"></circle><circle r="5" cx="260" cy="588"></circle><circle r="9" cx="487" cy="24"></circle><circle r="5" cx="721" cy="282"></circle><circle r="2" cx="472" cy="444"></circle></g></svg>